<?xml version="1.0" encoding="UTF-8"?>
<svg id="Capa_2" data-name="Capa 2" xmlns="http://www.w3.org/2000/svg" viewBox="0 0 1640.68 333.62">
  <defs>
    <style>
      .cls-1 {
        fill: #fff;
      }
    </style>
  </defs>
  <g id="Capa_1-2" data-name="Capa 1">
    <g>
      <g>
        <path class="cls-1" d="M600.72,238.52v-32.21l80.84-93.08h-75.37v-33.17h128.83v33.82l-80.84,90.5h83.1v34.14h-136.56Z"/>
        <path class="cls-1" d="M781.41,170.24c.64,12.03,4.13,21.58,10.47,28.67,6.33,7.09,14.65,10.63,24.96,10.63,6.87,0,12.93-1.56,18.2-4.67,5.26-3.11,8.64-7.46,10.15-13.04h43.16c-4.94,16.32-13.53,28.88-25.77,37.68-12.24,8.81-26.84,13.21-43.8,13.21-52.82,0-79.23-28.77-79.23-86.32,0-12.24,1.72-23.29,5.15-33.17,3.43-9.87,8.42-18.36,14.98-25.44,6.55-7.09,14.54-12.51,23.99-16.27,9.45-3.75,20.29-5.64,32.53-5.64,24.48,0,43,7.84,55.56,23.51,12.56,15.68,18.84,39.29,18.84,70.86h-109.18Zm66.03-26.41c-.22-5.8-1.24-10.9-3.06-15.3-1.83-4.4-4.24-8.05-7.25-10.95-3.01-2.9-6.44-5.04-10.31-6.44-3.87-1.39-7.84-2.09-11.92-2.09-8.37,0-15.62,3.06-21.74,9.18-6.12,6.12-9.61,14.65-10.47,25.6h64.74Z"/>
        <path class="cls-1" d="M1006.53,238.52v-95.98c0-12.24-2.04-20.5-6.12-24.8-4.08-4.29-11.06-6.44-20.94-6.44-21.69,0-32.53,12.13-32.53,36.39v90.83h-41.87V80.06h39.94v23.19c4.94-9.02,11.48-15.83,19.65-20.45,8.16-4.62,18.68-6.93,31.56-6.93,7.51,0,14.49,1.13,20.94,3.38,6.44,2.25,11.97,5.64,16.59,10.15,4.61,4.51,8.26,10.04,10.95,16.59,2.68,6.55,4.03,14.12,4.03,22.71v109.83h-42.19Z"/>
        <path class="cls-1" d="M1156.94,134.17h38.97v45.09c0,8.37-1.24,16.38-3.7,23.99-2.47,7.63-6.34,14.39-11.59,20.29-5.26,5.91-11.92,10.58-19.97,14.01-8.05,3.43-17.66,5.15-28.83,5.15s-21.47-1.72-29.63-5.15c-8.16-3.43-14.87-8.05-20.13-13.85-5.26-5.8-9.07-12.56-11.43-20.29-2.37-7.73-3.54-15.89-3.54-24.48V37.22h41.23v42.84h87.6v29.63h-87.6v65.06c0,10.09,1.88,17.88,5.64,23.35,3.75,5.48,9.93,8.21,18.52,8.21s14.54-2.68,18.52-8.05c3.97-5.36,5.96-12.99,5.96-22.87v-41.22Z"/>
        <path class="cls-1" d="M1213.94,61.06V22.09h41.87V61.06h-41.87Zm0,177.46V80.06h41.87V238.52h-41.87Z"/>
        <path class="cls-1" d="M1376.26,238.52v-95.98c0-12.24-2.04-20.5-6.12-24.8-4.08-4.29-11.06-6.44-20.94-6.44-21.69,0-32.53,12.13-32.53,36.39v90.83h-41.87V80.06h39.94v23.19c4.94-9.02,11.48-15.83,19.65-20.45,8.16-4.62,18.68-6.93,31.56-6.93,7.51,0,14.49,1.13,20.94,3.38,6.44,2.25,11.97,5.64,16.59,10.15,4.61,4.51,8.26,10.04,10.95,16.59,2.68,6.55,4.03,14.12,4.03,22.71v109.83h-42.19Z"/>
        <path class="cls-1" d="M1475.14,170.24c.64,12.03,4.13,21.58,10.47,28.67,6.33,7.09,14.66,10.63,24.96,10.63,6.87,0,12.93-1.56,18.2-4.67,5.26-3.11,8.64-7.46,10.15-13.04h43.16c-4.94,16.32-13.53,28.88-25.77,37.68-12.24,8.81-26.84,13.21-43.8,13.21-52.82,0-79.23-28.77-79.23-86.32,0-12.24,1.72-23.29,5.15-33.17,3.43-9.87,8.42-18.36,14.98-25.44,6.55-7.09,14.54-12.51,23.99-16.27,9.45-3.75,20.29-5.64,32.53-5.64,24.48,0,43,7.84,55.56,23.51,12.56,15.68,18.84,39.29,18.84,70.86h-109.18Zm66.03-26.41c-.22-5.8-1.24-10.9-3.06-15.3-1.83-4.4-4.24-8.05-7.25-10.95-3.01-2.9-6.44-5.04-10.31-6.44-3.87-1.39-7.84-2.09-11.92-2.09-8.37,0-15.62,3.06-21.74,9.18-6.12,6.12-9.61,14.65-10.47,25.6h64.74Z"/>
        <path class="cls-1" d="M1598.81,238.52V22.09h41.87V238.52h-41.87Z"/>
      </g>
      <g>
        <polygon class="cls-1" points="69.97 105.73 140.14 105.73 192.33 53.74 416.54 54.32 239.49 235.62 312.17 238.52 545.66 2.9 169.32 0 69.97 105.73"/>
        <polygon class="cls-1" points="236.01 94.52 307.82 95.87 130.47 278.15 355.27 279.5 405.72 228.28 478.01 228.66 375.95 333.62 0 333.62 236.01 94.52"/>
      </g>
    </g>
  </g>
</svg>